<svg xmlns="http://www.w3.org/2000/svg" xmlns:xlink="http://www.w3.org/1999/xlink" version="1.1" x="0" y="0"
    viewBox="4.314794540405273 14.106585502624512 91.37040710449219 73.78683471679688"
    style="enable-background:new 0 0 100 100;" xml:space="preserve" height="197.39231695986558" width="244.43136"
    class="icon-icon-0" data-fill-palette-color="accent" id="icon-0">
    <path
        d="M65.884 60.155c1.104 0.332 2.251 0.515 3.408 0.544 0.005 0 0.009 0 0.014 0 0.298 0 0.542-0.237 0.55-0.536 0.008-0.304-0.232-0.556-0.536-0.564-1.059-0.026-2.108-0.194-3.119-0.497-0.292-0.091-0.598 0.078-0.685 0.369C65.428 59.762 65.593 60.068 65.884 60.155z"
        fill="#ffffff" data-fill-palette-color="accent"></path>
    <path
        d="M75.872 48.259c0.627 0.081 1.234 0.251 1.806 0.506 0.274 0.125 0.602 0 0.727-0.276 0.124-0.277 0-0.603-0.278-0.727-0.669-0.3-1.381-0.5-2.116-0.594-3.186-0.405-6.156 1.206-7.594 3.979-0.14 0.27-0.034 0.602 0.236 0.741 0.081 0.042 0.167 0.062 0.253 0.062 0.198 0 0.391-0.108 0.488-0.297C70.619 49.287 73.155 47.908 75.872 48.259z"
        fill="#ffffff" data-fill-palette-color="accent"></path>
    <path
        d="M95.529 17.38c-0.082-0.133-0.214-0.234-0.38-0.26-2.87-0.43-5.755-0.261-8.576 0.504-8.129 2.203-14.094 8.992-15.255 17.321-0.727-0.095-1.461-0.133-2.194-0.105-0.061-10.797-8.454-19.872-19.263-20.73-0.036-0.002-0.07 0.009-0.105 0.013-0.238-0.059-0.493 0.037-0.615 0.264-1.373 2.555-2.186 5.329-2.418 8.243-0.641 8.085 3.401 15.711 10.355 19.748-1.16 0.666-2.685 1.091-3.874 1.091-1.521 0-3.04-0.717-4.422-1.371-0.003-0.002-0.007-0.001-0.01-0.002-3.492-1.648-7.333-2.531-11.246-2.531-5.69 0-11.107 1.782-15.664 5.155-5.603 4.146-9.301 10.378-10.351 17.175-4.225 1.834-7.196 6.029-7.196 10.922 0 6.574 5.348 11.922 11.922 11.922 1.909 0 3.697-0.479 5.296-1.282 3.033 1.207 5.594 1.239 5.809 1.239h12.407c0.295 1.809 1.856 3.197 3.747 3.197h1.282 9.302 5.594c1.526 0 2.836-0.907 3.444-2.205 1.751-0.341 3.08-1.875 3.08-3.725 0-2.101-1.708-3.809-3.809-3.809h-0.798c7.468-2.262 13.212-8.534 14.771-16.196 0.388-0.069 0.773-0.165 1.152-0.296 2.08-0.722 3.729-2.31 4.523-4.356 0.11-0.283-0.03-0.602-0.313-0.712s-0.602 0.03-0.712 0.314c-0.678 1.746-2.084 3.099-3.859 3.715-0.935 0.325-1.909 0.428-2.9 0.299-0.867-0.11-1.686-0.39-2.431-0.83-0.264-0.156-0.599-0.067-0.753 0.194s-0.067 0.599 0.194 0.753c0.875 0.517 1.835 0.845 2.851 0.975 0.324 0.041 0.646 0.062 0.965 0.061 0.044 0 0.086-0.01 0.13-0.011-1.571 7.108-6.941 12.906-13.903 15.028 1.255-2.666 2.078-5.537 2.381-8.503 0.031-0.302-0.188-0.572-0.491-0.603-0.295-0.027-0.572 0.189-0.603 0.491-0.435 4.259-1.981 8.315-4.398 11.798h-2.947-9.302-2.45c-1.933 0-3.517 1.453-3.76 3.322H27.346c-0.084 0-6.025-0.043-10.387-4.393-3.095-3.087-4.665-7.575-4.665-13.339 0-7.951 3.821-15.525 10.222-20.262 4.366-3.23 9.557-4.938 15.01-4.938 5.886 0 11.61 2.066 16.118 5.818 0.103 0.085 0.228 0.127 0.351 0.127 0.157 0 0.314-0.067 0.423-0.198 0.194-0.234 0.162-0.581-0.071-0.774-0.46-0.383-0.942-0.735-1.425-1.084 0.094 0.004 0.188 0.015 0.282 0.015 1.31 0 2.918-0.426 4.23-1.137-0.49 1.38-0.752 2.839-0.752 4.333 0 1.772 0.352 3.491 1.047 5.106 0.089 0.208 0.292 0.333 0.505 0.333 0.072 0 0.146-0.015 0.217-0.044 0.279-0.12 0.408-0.443 0.288-0.723-0.635-1.478-0.957-3.05-0.957-4.672 0-2.173 0.589-4.268 1.7-6.108 0.006-0.01 0.016-0.019 0.022-0.029 0.002-0.004 0.002-0.009 0.005-0.012 0.117-0.191 0.233-0.382 0.36-0.568 0.173-0.25 0.11-0.592-0.139-0.765-0.249-0.171-0.592-0.111-0.765 0.14-0.15 0.218-0.288 0.442-0.424 0.667-0.123 0.201-0.293 0.391-0.487 0.575-6.846-3.758-10.854-11.125-10.234-18.948 0.21-2.642 0.938-5.155 2.137-7.487 10.18 0.903 18.057 9.496 18.072 19.7-0.547 0.067-1.091 0.162-1.624 0.299-0.294 0.075-0.472 0.375-0.397 0.669 0.076 0.294 0.373 0.475 0.67 0.397 2.229-0.571 4.642-0.472 6.817 0.28 0.06 0.021 0.12 0.031 0.18 0.031 0.228 0 0.441-0.143 0.52-0.37 0.1-0.287-0.053-0.601-0.34-0.7-0.475-0.165-0.963-0.293-1.455-0.4 1.087-7.909 6.746-14.359 14.46-16.45 2.413-0.654 4.873-0.822 7.324-0.556L79.059 38.933c-0.176-0.188-0.349-0.378-0.536-0.556-0.22-0.209-0.568-0.2-0.779 0.02-0.209 0.22-0.199 0.568 0.021 0.778 2.06 1.953 3.35 4.577 3.633 7.388 0 0 0 0 0 0 0 0 0 0 0 0.001 0.04 0.395 0.06 0.795 0.059 1.201 0 0.778-0.075 1.554-0.223 2.304-0.06 0.298 0.135 0.587 0.432 0.646 0.036 0.007 0.071 0.011 0.108 0.011 0.257 0 0.486-0.182 0.538-0.443 0.163-0.821 0.245-1.668 0.245-2.518 0-0.442-0.021-0.88-0.065-1.313 0 0 0 0-0.001 0-0.246-2.44-1.194-4.743-2.696-6.66l15.789-21.717C95.742 17.857 95.708 17.568 95.529 17.38zM60.171 79.254h2.218c1.493 0 2.709 1.216 2.709 2.709 0 1.117-0.684 2.067-1.651 2.481 0.011-0.12 0.036-0.236 0.037-0.359 0-2.101-1.709-3.81-3.81-3.81h-0.144C59.75 79.938 59.967 79.6 60.171 79.254zM43.496 81.375h2.45 9.302 4.426c1.494 0 2.71 1.216 2.71 2.71 0 1.493-1.216 2.709-2.71 2.709h-5.594-9.302-1.282c-1.494 0-2.709-1.216-2.71-2.709C40.786 82.591 42.002 81.375 43.496 81.375zM16.182 79.982c1.279 1.275 2.669 2.196 4.023 2.875-1.232 0.492-2.564 0.782-3.968 0.783-5.967 0-10.822-4.854-10.823-10.823 0-4.206 2.416-7.851 5.929-9.641-0.093 0.89-0.149 1.786-0.148 2.689C11.195 71.932 12.873 76.682 16.182 79.982z"
        fill="#ffffff" data-fill-palette-color="accent"></path>
    <path
        d="M79.56 56.566c0.297-0.062 0.487-0.354 0.425-0.651-0.062-0.298-0.358-0.488-0.652-0.425-0.787 0.165-1.452 0.628-1.885 1.265-0.434-0.616-1.089-1.063-1.861-1.225-0.292-0.061-0.589 0.128-0.65 0.426-0.063 0.297 0.128 0.589 0.426 0.651 0.77 0.161 1.361 0.764 1.508 1.536 0.051 0.267 0.046 0.534-0.014 0.795-0.068 0.297 0.116 0.592 0.412 0.66 0.042 0.01 0.084 0.014 0.125 0.014 0.076 0 0.148-0.021 0.216-0.05 0.014-0.002 0.029-0.001 0.043-0.005 0.296-0.068 0.48-0.364 0.412-0.66-0.061-0.26-0.065-0.527-0.015-0.794C78.197 57.331 78.789 56.728 79.56 56.566z"
        fill="#ffffff" data-fill-palette-color="accent"></path>
    <path
        d="M66.15 46.532c0-0.511 0.416-0.927 0.927-0.927s0.928 0.416 0.928 0.927c0 0.304 0.246 0.55 0.55 0.55s0.55-0.246 0.55-0.55c0-1.118-0.909-2.027-2.028-2.027s-2.027 0.909-2.027 2.027c0 0.304 0.246 0.55 0.55 0.55S66.15 46.836 66.15 46.532z"
        fill="#ffffff" data-fill-palette-color="accent"></path>
    <path
        d="M88.671 49.541c-2.731-0.626-5.552 0.445-7.182 2.728-0.51 0.714-0.131 1.413 0.307 1.503 2.312 0.473 4.087 2.293 4.529 4.612 0.151 0.8 0.138 1.603-0.043 2.387-0.068 0.296 0.117 0.591 0.413 0.66 0.041 0.01 0.083 0.014 0.123 0.013 0.251 0 0.478-0.172 0.536-0.427 0.215-0.934 0.231-1.889 0.051-2.838-0.441-2.318-2.013-4.196-4.134-5.081 1.956-0.392 3.993 0.237 5.389 1.728 0.557 0.596 0.974 1.282 1.241 2.041 0.079 0.227 0.292 0.368 0.518 0.368 0.061 0 0.122-0.01 0.183-0.032 0.286-0.101 0.437-0.415 0.336-0.701-0.316-0.903-0.813-1.72-1.475-2.427-1.624-1.734-3.977-2.48-6.256-2.075 1.391-1.274 3.321-1.821 5.218-1.386 0.793 0.182 1.523 0.518 2.17 0.998 0.244 0.181 0.587 0.13 0.77-0.113 0.182-0.244 0.131-0.588-0.114-0.77C90.482 50.157 89.614 49.758 88.671 49.541z"
        fill="#ffffff" data-fill-palette-color="accent"></path>
    <path
        d="M68.248 56.866c0.687-0.154 0.585-1.115 0.309-1.504-1.624-2.285-4.446-3.352-7.184-2.727-0.941 0.216-1.81 0.615-2.58 1.188-0.244 0.181-0.295 0.526-0.113 0.769 0.183 0.244 0.526 0.294 0.77 0.113 0.647-0.481 1.377-0.817 2.169-0.998 1.892-0.436 3.825 0.111 5.219 1.385-2.28-0.406-4.633 0.341-6.256 2.076-0.66 0.705-1.157 1.521-1.475 2.428-0.102 0.286 0.05 0.601 0.336 0.701 0.061 0.021 0.122 0.031 0.182 0.031 0.227 0 0.439-0.141 0.519-0.367 0.269-0.761 0.686-1.448 1.241-2.041 1.396-1.492 3.432-2.12 5.388-1.729-2.12 0.885-3.692 2.762-4.132 5.08-0.181 0.95-0.163 1.905 0.051 2.84 0.059 0.255 0.285 0.427 0.535 0.427 0.041 0 0.083-0.004 0.124-0.014 0.296-0.068 0.481-0.363 0.413-0.659-0.181-0.785-0.194-1.589-0.043-2.389C64.161 59.159 65.946 57.382 68.248 56.866z"
        fill="#ffffff" data-fill-palette-color="accent"></path>
</svg>